<?xml version="1.0" encoding="utf-8"?>
<!-- Uploaded to: SVG Repo, www.svgrepo.com, Generator: SVG Repo Mixer Tools -->
<svg width="800px" height="800px" viewBox="0 0 1024 1024" class="icon"  version="1.1" xmlns="http://www.w3.org/2000/svg"><path d="M618.666667 213.333333L362.666667 128 106.666667 213.333333v682.666667l256-85.333333 256 85.333333 256-85.333333V128z" fill="#FFECB3" /><path d="M362.666667 128v682.666667l256 85.333333V213.333333z" fill="#FFE082" /><path d="M910.464 173.696l-60.16-60.138667a23.424 23.424 0 0 0-33.173333 0L788.8 141.866667l93.354667 93.333333 28.309333-28.330667a23.466667 23.466667 0 0 0 0-33.173333" fill="#E57373" /><path d="M479.402667 451.136L742.122667 188.416l93.333333 93.333333-262.72 262.72z" fill="#FF9800" /><path d="M882.176 235.221333l-46.656 46.677334-93.376-93.333334 46.656-46.677333z" fill="#B0BEC5" /><path d="M479.424 451.242667L448 576l124.757333-31.402667z" fill="#FFC107" /><path d="M463.872 512.938667L448 576l63.061333-15.872z" fill="#37474F" /></svg>